<svg width="84" height="84" viewBox="0 0 84 84" fill="none" xmlns="http://www.w3.org/2000/svg">
<g clip-path="url(#clip0_75_236)">
<path d="M67.5942 0H16.4069C7.346 0 0.000701904 7.34533 0.000701904 16.4062V67.5938C0.000701904 76.6547 7.346 84 16.4069 84H67.5942C76.655 84 84.0003 76.6547 84.0003 67.5938V16.4062C84.0003 7.34533 76.655 0 67.5942 0Z" fill="url(#paint0_linear_75_236)"/>
<path d="M42.3983 47.7727L25.1213 42.4551V51.3363C25.1213 55.4422 32.8589 58.771 42.4034 58.771C51.9479 58.771 59.6863 55.4422 59.6863 51.3363C59.6863 51.3035 59.6757 51.2707 59.675 51.24V42.4551L42.3983 47.7727Z" fill="white"/>
<path d="M13.4402 36.3411L19.6124 38.549L20.1384 37.4226L22.4059 37.2298L22.7293 37.5661L20.7835 38.0277L20.4998 38.867C20.4998 38.867 16.1048 48.0545 16.7502 52.5487C16.7502 52.5487 19.4933 54.1849 22.2351 52.5487L22.9637 40.2604V39.2374L27.0452 38.3167L26.757 39.0271L23.714 40.0167L25.1214 40.5196L42.3983 45.8357L59.675 40.5181L71.3562 36.3404L42.3983 25.2003L13.4402 36.3411Z" fill="white"/>
</g>
<defs>
<linearGradient id="paint0_linear_75_236" x1="42.0002" y1="84" x2="33.5002" y2="-2.7644e-06" gradientUnits="userSpaceOnUse">
<stop offset="0.115602" stop-color="#C471F5"/>
<stop offset="1" stop-color="#FA71CD"/>
</linearGradient>
<clipPath id="clip0_75_236">
<rect width="84" height="84" fill="white"/>
</clipPath>
</defs>
</svg>
