<svg width="24" height="25" viewBox="0 0 24 25" fill="none" xmlns="http://www.w3.org/2000/svg">
<path fill-rule="evenodd" clip-rule="evenodd" d="M12.2471 4.65706L21.5824 8.29709H21.5784C21.7049 8.34622 21.8131 8.43216 21.8884 8.54339C21.9637 8.65463 22.0026 8.78583 21.9999 8.91939C21.9971 9.05296 21.9528 9.1825 21.873 9.29064C21.7931 9.39878 21.6815 9.48035 21.5531 9.5244L12.2177 12.7597C12.1467 12.7848 12.0718 12.7976 11.9963 12.7977C11.9209 12.7974 11.846 12.7846 11.775 12.7597L3.99861 10.0627V14.0315C3.99861 14.2921 3.89323 14.542 3.70566 14.7262C3.51808 14.9104 3.26367 15.0139 2.9984 15.0139C2.73312 15.0139 2.47871 14.9104 2.29114 14.7262C2.10356 14.542 1.99818 14.2921 1.99818 14.0315V9.23362C2.00448 9.16682 2.01835 9.10092 2.03952 9.03714C2.03565 9.0203 2.02788 9.00458 2.0201 8.98886C2.00914 8.9667 1.99818 8.94455 1.99818 8.91926C1.99545 8.78572 2.03435 8.65455 2.10968 8.54335C2.185 8.43214 2.29315 8.34621 2.41961 8.29709L11.755 4.65706C11.913 4.59543 12.089 4.59543 12.2471 4.65706ZM12.0003 14.2281L17.1094 12.4533H17.1081C17.2087 12.4185 17.3163 12.4079 17.4219 12.4224C17.5275 12.437 17.628 12.4761 17.715 12.5367C17.802 12.5973 17.873 12.6774 17.9219 12.7705C17.9709 12.8635 17.9964 12.9668 17.9963 13.0715V16.3461C17.9961 16.4815 17.9532 16.6136 17.8734 16.7241C17.7936 16.8346 17.6809 16.9181 17.5508 16.963L13.55 18.3515C12.545 18.6973 11.4503 18.6973 10.4453 18.3515L6.44445 16.963C6.31437 16.9181 6.20168 16.8346 6.1219 16.7241C6.04213 16.6136 5.9992 16.4815 5.99902 16.3461V13.0715C5.99895 12.9668 6.02445 12.8635 6.07338 12.7705C6.12232 12.6774 6.19327 12.5973 6.28027 12.5367C6.36727 12.4761 6.4678 12.437 6.5734 12.4224C6.67901 12.4079 6.78663 12.4185 6.88722 12.4533L12.0003 14.2281Z" fill="#7490E8"/>
</svg>
