<svg width="97" height="98" viewBox="0 0 97 98" fill="none" xmlns="http://www.w3.org/2000/svg">
<circle cx="48.5" cy="48.7988" r="48.5" fill="url(#paint0_linear_75_304)"/>
<path d="M49 25.2988C62.2548 25.2988 73 36.044 73 49.2988C73 62.5537 62.2548 73.2988 49 73.2988C35.7452 73.2988 25 62.5537 25 49.2988C25 36.044 35.7452 25.2988 49 25.2988ZM47.0061 37.2988C45.9015 37.2988 45.0061 38.1943 45.0061 39.2988V51.2988C45.0061 52.4034 45.9015 53.2988 47.0061 53.2988H55C56.1046 53.2988 57 52.4034 57 51.2988C57 50.1943 56.1046 49.2988 55 49.2988H49.0061V39.2988C49.0061 38.1943 48.1107 37.2988 47.0061 37.2988Z" fill="white"/>
<defs>
<linearGradient id="paint0_linear_75_304" x1="0" y1="48.7988" x2="97" y2="48.7988" gradientUnits="userSpaceOnUse">
<stop stop-color="#FBC2EB"/>
<stop offset="1" stop-color="#A6C1EE"/>
</linearGradient>
</defs>
</svg>
