<svg width="97" height="97" viewBox="0 0 97 97" fill="none" xmlns="http://www.w3.org/2000/svg">
<circle cx="48.5" cy="48.5" r="48.5" fill="url(#paint0_linear_75_323)"/>
<path d="M73.0607 50.5426C73.6255 49.413 73.9644 48.1704 73.9644 46.9278C73.9644 44.1038 72.3829 41.3927 69.8978 40.0372C69.8978 39.8112 69.8978 39.6983 69.8978 39.4724C69.8978 36.0835 67.2997 33.2594 63.9108 32.9206V32.8076C63.9108 28.9669 60.7479 25.804 56.9072 25.804C53.0664 25.804 49.9035 28.9669 49.9035 32.8076V66.1314C49.9035 70.5369 53.4053 74.0387 57.8108 74.0387C60.7479 74.0387 63.346 72.4572 64.7015 69.9721C65.0404 70.085 65.3793 70.085 65.7182 70.085C68.2033 70.085 70.1237 68.1647 70.2367 65.6795C73.6255 64.324 75.9977 61.0481 75.9977 57.3203C76.1107 54.7222 74.9811 52.2371 73.0607 50.5426ZM54.7609 34.615C54.7609 33.3724 55.7775 32.2428 57.1331 32.2428C58.3757 32.2428 59.5053 33.2594 59.5053 34.615C59.5053 35.6316 58.9405 36.4224 58.0368 36.7613V39.9242C58.6016 40.1501 59.0534 40.602 59.3923 41.1668H62.6682C63.0071 40.376 63.7978 39.6983 64.8145 39.6983C66.0571 39.6983 67.1867 40.7149 67.1867 42.0705C67.1867 43.3131 66.17 44.4427 64.8145 44.4427C63.7978 44.4427 63.0071 43.8779 62.6682 42.9742H59.3923C59.0534 43.8779 58.2627 44.4427 57.246 44.4427C56.0035 44.4427 54.8738 43.426 54.8738 42.0705C54.8738 41.0538 55.4386 40.2631 56.3423 39.9242V36.7613C55.3257 36.4224 54.7609 35.5187 54.7609 34.615ZM58.4886 67.9388C58.1497 68.5036 57.5849 68.8425 57.0201 68.9554C56.9072 68.9554 56.6812 68.9554 56.5683 68.9554C56.1164 68.9554 55.6646 68.8425 55.2127 68.5036C54.6479 68.1647 54.309 67.5999 54.1961 67.0351C54.0831 66.4703 54.1961 65.7925 54.535 65.3406C54.7609 65.1147 54.9868 64.8888 55.2127 64.6629L54.6479 61.6129C54.309 61.4999 54.0831 61.4999 53.7442 61.274C53.1794 60.9351 52.8405 60.3703 52.7276 59.8055C52.6146 59.2407 52.7276 58.5629 53.0664 58.1111C53.4053 57.5463 53.9701 57.2074 54.535 57.0944C55.0998 56.9815 55.7775 57.0944 56.2294 57.4333C56.7942 57.7722 57.1331 58.337 57.246 58.9018C57.472 59.8055 57.0201 60.8222 56.2294 61.274L56.7942 64.324C57.1331 64.4369 57.359 64.5499 57.6979 64.6629C58.1497 65.0017 58.6016 65.5666 58.7145 66.1314C58.9405 66.8091 58.8275 67.374 58.4886 67.9388ZM57.359 50.9945C57.1331 51.1074 56.9072 51.1074 56.6812 51.1074C56.1164 51.1074 55.4386 50.8815 54.9868 50.4297C54.0831 49.526 54.0831 48.0575 54.9868 47.1538C55.4386 46.7019 56.0035 46.476 56.5683 46.476C57.1331 46.476 57.8108 46.7019 58.1497 47.1538C58.9405 47.8315 59.0534 48.9612 58.6016 49.8648L61.0867 54.1574C61.3127 54.0444 61.4256 54.0444 61.6516 54.0444L62.4423 51.5593C62.4423 51.5593 62.3293 51.5593 62.3293 51.4463C61.8775 50.9945 61.6516 50.4297 61.6516 49.7519C61.6516 49.1871 61.8775 48.5093 62.3293 48.0575C63.233 47.1538 64.7015 47.1538 65.6052 48.0575C66.0571 48.5093 66.283 49.0741 66.283 49.7519C66.283 50.4297 66.0571 50.9945 65.6052 51.4463C65.1534 51.8982 64.5886 52.1241 64.0238 52.1241L63.233 54.4963C63.346 54.4963 63.346 54.6093 63.346 54.6093C64.2497 55.5129 64.2497 56.9815 63.346 57.8851C62.8941 58.337 62.3293 58.5629 61.6516 58.5629C61.0867 58.5629 60.409 58.337 59.9571 57.8851C59.5053 57.4333 59.2794 56.8685 59.2794 56.1907C59.2794 55.8518 59.3923 55.4 59.5053 55.1741L57.359 50.9945ZM71.2533 61.0481C71.0274 61.6129 70.5755 62.0647 69.8978 62.2907C69.6719 62.4036 69.333 62.4036 69.107 62.4036C68.7682 62.4036 68.4293 62.2907 68.0904 62.1777C67.7515 62.0647 67.5256 61.8388 67.2997 61.6129L64.3626 62.6295C64.3626 63.5332 63.7978 64.4369 62.8941 64.7758C62.6682 64.8888 62.3293 64.8888 62.1034 64.8888C61.7645 64.8888 61.4256 64.7758 61.0867 64.6629C60.5219 64.4369 60.0701 63.9851 59.8442 63.3073C59.3923 62.0647 60.0701 60.7092 61.1997 60.3703C61.7645 60.1444 62.4423 60.1444 63.0071 60.4833C63.346 60.5962 63.5719 60.8222 63.7978 61.0481L66.7348 60.0314C66.7348 59.1277 67.2996 58.224 68.2033 57.8851C68.7682 57.6592 69.4459 57.6592 70.0107 57.9981C70.5755 58.224 71.0274 58.6759 71.2533 59.3537C71.4792 59.9185 71.4792 60.4833 71.2533 61.0481ZM40.9795 25.804C37.1388 25.804 33.9759 28.9669 33.9759 32.8076C33.9759 32.9206 33.9759 32.9206 33.9759 33.0335C30.7 33.2594 28.1019 36.0835 28.1019 39.5853C28.1019 39.8112 28.1019 39.9242 28.1019 40.1501C25.6167 41.5057 24.0352 44.1038 24.0352 47.0408C24.0352 48.2834 24.3741 49.526 24.9389 50.6556C23.0186 52.35 21.8889 54.8352 21.8889 57.3203C21.8889 61.0481 24.2611 64.324 27.65 65.6795C27.763 68.1647 29.6833 70.085 32.1685 70.085C32.5074 70.085 32.8463 70.085 33.1851 69.9721C34.5407 72.4572 37.2518 74.0387 40.0758 74.0387C44.4813 74.0387 47.9832 70.5369 47.9832 66.1314V32.8076C47.9832 28.8539 44.9332 25.804 40.9795 25.804ZM30.9259 48.2834C30.9259 47.8315 31.2648 47.3797 31.8296 47.3797C32.2814 47.3797 32.7333 47.7186 32.7333 48.2834C32.7333 50.6556 34.6536 52.463 36.9129 52.463C37.3647 52.463 37.8166 52.8019 37.8166 53.3667C37.8166 53.8185 37.4777 54.2704 36.9129 54.2704C33.524 54.2704 30.9259 51.5593 30.9259 48.2834ZM42.561 67.8258C42.1091 67.8258 41.6573 67.4869 41.6573 66.9221C41.6573 64.5499 39.7369 62.7425 37.4777 62.7425C37.0258 62.7425 36.574 62.4036 36.574 61.8388C36.574 61.387 36.9129 60.9351 37.4777 60.9351C40.7536 60.9351 43.4647 63.6462 43.4647 66.8091C43.3517 67.374 43.0128 67.8258 42.561 67.8258ZM37.7036 43.8779C37.2518 43.8779 36.7999 43.539 36.7999 42.9742C36.7999 42.5223 37.1388 42.0705 37.7036 42.0705C40.0758 42.0705 41.8832 40.1501 41.8832 37.8909C41.8832 37.439 42.2221 36.9872 42.7869 36.9872C43.2388 36.9872 43.6906 37.3261 43.6906 37.8909C43.6906 41.2797 40.9795 43.8779 37.7036 43.8779Z" fill="white"/>
<defs>
<linearGradient id="paint0_linear_75_323" x1="0" y1="48.5" x2="97" y2="48.5" gradientUnits="userSpaceOnUse">
<stop stop-color="#A7A6CB"/>
<stop offset="0.52" stop-color="#8989BA"/>
<stop offset="1" stop-color="#8989BA"/>
</linearGradient>
</defs>
</svg>
