<svg width="97" height="97" viewBox="0 0 97 97" fill="none" xmlns="http://www.w3.org/2000/svg">
<circle cx="48.5" cy="48.5" r="48.5" fill="url(#paint0_linear_75_315)"/>
<path d="M48.9999 25C35.7657 25 24.9999 35.7658 24.9999 49C24.9999 62.2342 35.7657 73 48.9999 73C62.2341 73 72.9999 62.2342 72.9999 49C72.9999 35.7658 62.2341 25 48.9999 25ZM56.5397 56.3313C55.8149 57.3877 54.8652 58.1804 53.6203 58.7721C52.702 59.1791 51.746 59.4291 50.7586 59.5221V62.748C50.7586 63.2405 50.3604 63.6374 49.8692 63.6374H47.2073C46.7149 63.6374 46.3179 63.2392 46.3179 62.748V59.2432C45.8167 59.1201 45.323 58.948 44.828 58.7219C43.4977 58.1792 42.4249 57.2948 41.6724 56.1052C40.9174 55.0009 40.5117 53.7108 40.4488 52.187C40.4288 51.7046 40.7968 51.2951 41.278 51.2624L43.6685 51.0991C44.1497 51.0715 44.5567 51.4119 44.6132 51.8818C44.7087 52.682 44.9335 53.344 45.2652 53.7962C45.6383 54.3565 46.1169 54.7246 46.8405 55.021C48.3731 55.6956 50.3227 55.6969 51.6719 55.1781C52.2698 54.9218 52.6932 54.6278 52.9733 54.2661C53.2133 53.9219 53.3313 53.5601 53.3313 53.1279C53.3313 52.7222 53.2271 52.4232 52.9746 52.0991C52.8427 51.9232 52.5022 51.5941 51.6066 51.2361C51.1694 51.0916 50.0338 50.7688 48.3052 50.3504C46.2865 49.8467 45.1182 49.4648 44.3934 49.0716C43.3143 48.5013 42.504 47.7903 41.9952 46.9624C41.4739 46.1195 41.2101 45.1572 41.2101 44.1045C41.2101 42.9589 41.5305 41.8672 42.1611 40.8597C42.8143 39.8774 43.7778 39.106 44.9612 38.6086C45.3569 38.4289 45.8066 38.2782 46.3191 38.1576V35.1917C46.3191 34.6992 46.7174 34.3023 47.2085 34.3023H49.8705C50.3629 34.3023 50.7599 34.7005 50.7599 35.1917V38.0006C51.5601 38.1337 52.3012 38.336 52.9733 38.6036C54.2735 39.1877 55.2169 39.9703 55.8903 41.0117C56.5648 41.9941 56.9455 43.1737 57.0121 44.4965C57.0359 44.9814 56.6666 45.3959 56.1817 45.4286L53.7346 45.5931C53.2622 45.6258 52.8565 45.2891 52.7924 44.8256C52.6555 43.8219 52.3201 43.1209 51.7661 42.685C51.1367 42.1486 50.2235 41.8986 48.9471 41.8986C47.6972 41.8986 46.6935 42.1411 46.1194 42.5833C45.6534 42.9425 45.4348 43.3747 45.4348 43.9425C45.4348 44.3796 45.5717 44.7226 45.8418 44.9638C45.985 45.0768 46.7664 45.5856 49.2926 46.117C51.3792 46.6094 52.913 47.0579 53.7534 47.4197C55.0926 48.0227 56.0498 48.8003 56.6113 49.7349C57.2382 50.6733 57.5535 51.7235 57.5535 52.9093C57.5535 54.1429 57.213 55.2936 56.5397 56.3313Z" fill="white"/>
<defs>
<linearGradient id="paint0_linear_75_315" x1="0" y1="48.5" x2="97" y2="48.5" gradientUnits="userSpaceOnUse">
<stop stop-color="#9795F0"/>
<stop offset="1" stop-color="#FBC8D4"/>
</linearGradient>
</defs>
</svg>
