<svg width="52" height="51" viewBox="0 0 52 51" fill="none" xmlns="http://www.w3.org/2000/svg">
<g filter="url(#filter0_d_76_470)">
<rect x="8.90469" y="4" width="34.8" height="34.8" rx="17.4" fill="#011C48"/>
<path d="M35.6541 14.1528C35.448 13.6189 35.1323 13.1342 34.7274 12.7297C34.3226 12.3253 33.8375 12.0101 33.3034 11.8045C32.568 11.5322 31.7912 11.3882 31.0071 11.3789C29.703 11.3195 29.3121 11.3047 26.0086 11.3047C22.7052 11.3047 22.3143 11.3195 21.0102 11.3789C20.2252 11.3879 19.4476 11.5319 18.7115 11.8045C18.1776 12.0107 17.6928 12.3263 17.2884 12.7312C16.8839 13.1361 16.5688 13.6212 16.3632 14.1553C16.0908 14.8907 15.9468 15.6674 15.9376 16.4516C15.8782 17.7556 15.8633 18.1466 15.8633 21.45C15.8633 24.7534 15.8782 25.1444 15.9376 26.4484C15.9466 27.2334 16.0905 28.011 16.3632 28.7472C16.5693 29.2811 16.885 29.7658 17.2899 30.1703C17.6947 30.5747 18.1798 30.8899 18.7139 31.0955C19.4493 31.3678 20.2261 31.5118 21.0102 31.5211C22.3143 31.5805 22.7052 31.5953 26.0086 31.5953C29.3121 31.5953 29.703 31.5805 31.0071 31.5211C31.7921 31.5121 32.5697 31.3681 33.3058 31.0955C33.8397 30.8893 34.3245 30.5737 34.7289 30.1688C35.1334 29.7639 35.4485 29.2788 35.6541 28.7447C35.9265 28.0093 36.0704 27.2326 36.0797 26.4484C36.1391 25.1444 36.154 24.7534 36.154 21.45C36.154 18.1466 36.1391 17.7556 36.0797 16.4516C36.0707 15.6666 35.9268 14.889 35.6541 14.1528ZM26.0086 27.8044C24.7519 27.8044 23.5233 27.4317 22.4783 26.7335C21.4333 26.0353 20.6189 25.0429 20.1379 23.8817C19.657 22.7206 19.5311 21.443 19.7763 20.2103C20.0215 18.9777 20.6267 17.8454 21.5154 16.9567C22.4041 16.0681 23.5363 15.4629 24.769 15.2177C26.0016 14.9725 27.2793 15.0983 28.4404 15.5793C29.6015 16.0602 30.5939 16.8747 31.2922 17.9197C31.9904 18.9646 32.3631 20.1932 32.3631 21.45C32.3631 23.1353 31.6936 24.7516 30.5019 25.9433C29.3102 27.1349 27.6939 27.8044 26.0086 27.8044V27.8044ZM32.613 16.3303C32.3193 16.3303 32.0323 16.2433 31.7881 16.0801C31.544 15.917 31.3537 15.6851 31.2413 15.4138C31.129 15.1425 31.0996 14.844 31.1568 14.556C31.2141 14.268 31.3555 14.0035 31.5632 13.7958C31.7708 13.5882 32.0353 13.4468 32.3233 13.3895C32.6113 13.3322 32.9099 13.3616 33.1812 13.474C33.4524 13.5864 33.6843 13.7767 33.8475 14.0208C34.0106 14.265 34.0977 14.552 34.0977 14.8456C34.0977 15.2394 33.9412 15.617 33.6628 15.8955C33.3844 16.1739 33.0068 16.3303 32.613 16.3303V16.3303Z" fill="white"/>
<path d="M26.5034 20.4603C27.3233 20.4603 27.988 21.125 27.988 21.945C27.988 22.765 27.3233 23.4297 26.5034 23.4297C25.6834 23.4297 25.0187 22.765 25.0187 21.945C25.0187 21.125 25.6834 20.4603 26.5034 20.4603Z" fill="white"/>
</g>
<defs>
<filter id="filter0_d_76_470" x="0.904694" y="0" width="50.8" height="50.7998" filterUnits="userSpaceOnUse" color-interpolation-filters="sRGB">
<feFlood flood-opacity="0" result="BackgroundImageFix"/>
<feColorMatrix in="SourceAlpha" type="matrix" values="0 0 0 0 0 0 0 0 0 0 0 0 0 0 0 0 0 0 127 0" result="hardAlpha"/>
<feOffset dy="4"/>
<feGaussianBlur stdDeviation="4"/>
<feComposite in2="hardAlpha" operator="out"/>
<feColorMatrix type="matrix" values="0 0 0 0 0.0358333 0 0 0 0 0.139352 0 0 0 0 0.179167 0 0 0 0.16 0"/>
<feBlend mode="normal" in2="BackgroundImageFix" result="effect1_dropShadow_76_470"/>
<feBlend mode="normal" in="SourceGraphic" in2="effect1_dropShadow_76_470" result="shape"/>
</filter>
</defs>
</svg>
