<svg width="84" height="84" viewBox="0 0 84 84" fill="none" xmlns="http://www.w3.org/2000/svg">
<path d="M67.5935 0H16.4062C7.3453 0 0 7.34533 0 16.4062V67.5938C0 76.6547 7.3453 84 16.4062 84H67.5935C76.6543 84 83.9996 76.6547 83.9996 67.5938V16.4062C83.9996 7.34533 76.6543 0 67.5935 0Z" fill="url(#paint0_linear_75_250)"/>
<path d="M64.5876 53.0722C64.5876 54.8682 63.1317 56.3237 61.3359 56.3237H23.1609C21.3649 56.3237 19.9092 54.868 19.9092 53.0722V30.6338C19.9092 28.8378 21.365 27.382 23.1609 27.382H61.3359C63.1319 27.382 64.5876 28.838 64.5876 30.6338V53.0722Z" fill="#D9ECFB"/>
<path d="M66.4954 61.1879H18.0535C17.0626 61.1879 16.2593 60.3846 16.2593 59.3935V58.4964C16.2593 58.0011 16.661 57.5996 17.1562 57.5996H67.3924C67.8879 57.5996 68.2895 58.0012 68.2895 58.4964V59.3935C68.2897 60.3844 67.4863 61.1879 66.4954 61.1879Z" fill="white"/>
<path d="M45.3084 59.3938H39.2407C38.9007 59.3938 38.5903 59.202 38.4383 58.8981L37.7891 57.5997H46.7596L46.1105 58.8981C45.9587 59.202 45.6479 59.3938 45.3084 59.3938Z" fill="#3093D5"/>
<path d="M63.8039 25.3047H20.7443C19.2582 25.3047 18.0532 26.5096 18.0532 27.9959V57.5992H66.4952V27.996C66.4952 26.5098 65.29 25.3047 63.8039 25.3047ZM63.8039 54.0109C63.8039 54.5063 63.4019 54.908 62.9067 54.908H21.6415C21.146 54.908 20.7444 54.5061 20.7444 54.0109V28.8932C20.7444 28.3975 21.1462 27.996 21.6415 27.996H62.9068C63.4023 27.996 63.8039 28.3976 63.8039 28.8932V54.0109Z" fill="white"/>
<path opacity="0.97" d="M31.0919 36.809H29.1471C28.6102 36.809 28.1748 36.3737 28.1748 35.8369C28.1748 35.3001 28.6102 34.8644 29.1471 34.8644H31.0919C31.6287 34.8644 32.0641 35.3001 32.0641 35.8369C32.0641 36.374 31.6289 36.809 31.0919 36.809Z" fill="#FFBE55"/>
<path opacity="0.97" d="M56.3739 35.8373C56.3739 36.1064 56.2654 36.3488 56.0893 36.5238C55.913 36.7001 55.6706 36.8085 55.4011 36.8085H34.9808C34.4437 36.8085 34.0093 36.3728 34.0093 35.8373C34.0093 35.5678 34.1181 35.3254 34.2942 35.1491C34.469 34.9728 34.713 34.8641 34.9808 34.8641H55.4011C55.9382 34.8641 56.3739 35.3001 56.3739 35.8373Z" fill="white"/>
<path opacity="0.97" d="M31.0919 40.6985H29.1471C28.6102 40.6985 28.1748 40.2632 28.1748 39.7264C28.1748 39.1893 28.6102 38.7539 29.1471 38.7539H31.0919C31.6287 38.7539 32.0641 39.1893 32.0641 39.7264C32.0641 40.2635 31.6289 40.6985 31.0919 40.6985Z" fill="#FFBE55"/>
<path opacity="0.97" d="M56.3739 39.7261C56.3739 39.9955 56.2654 40.2379 56.0893 40.4142C55.9131 40.5906 55.6706 40.6992 55.4011 40.6992H34.9808C34.4437 40.6992 34.0093 40.2632 34.0093 39.7261C34.0093 39.457 34.1181 39.2146 34.2942 39.0395C34.469 38.8632 34.713 38.7549 34.9808 38.7549H55.4011C55.9382 38.7549 56.3739 39.1893 56.3739 39.7261Z" fill="white"/>
<path opacity="0.97" d="M31.0919 44.5885H29.1471C28.6102 44.5885 28.1748 44.1532 28.1748 43.6164C28.1748 43.0792 28.6102 42.6436 29.1471 42.6436H31.0919C31.6287 42.6436 32.0641 43.0792 32.0641 43.6164C32.0641 44.1532 31.6289 44.5885 31.0919 44.5885Z" fill="#FFBE55"/>
<path opacity="0.97" d="M56.3739 43.6164C56.3739 43.8842 56.2654 44.1279 56.0893 44.3042C55.9131 44.4805 55.6706 44.5892 55.4011 44.5892H34.9808C34.4437 44.5892 34.0093 44.1535 34.0093 43.6164C34.0093 43.3485 34.1181 43.1045 34.2942 42.9282C34.469 42.7519 34.713 42.6436 34.9808 42.6436H55.4011C55.9382 42.6436 56.3739 43.0791 56.3739 43.6164Z" fill="white"/>
<defs>
<linearGradient id="paint0_linear_75_250" x1="10.5" y1="7.5" x2="48.5" y2="84" gradientUnits="userSpaceOnUse">
<stop stop-color="#FFD82E"/>
<stop offset="0.955359" stop-color="#FFA01E"/>
</linearGradient>
</defs>
</svg>
