<svg width="84" height="84" viewBox="0 0 84 84" fill="none" xmlns="http://www.w3.org/2000/svg">
<path d="M66.0235 0.388916H17.9765C8.26313 0.388916 0.388885 8.26314 0.388885 17.9765V66.0235C0.388885 75.7369 8.26313 83.6113 17.9765 83.6113H66.0235C75.7368 83.6113 83.6111 75.7369 83.6111 66.0235V17.9765C83.6111 8.26314 75.7368 0.388916 66.0235 0.388916Z" fill="url(#paint0_linear_75_270)"/>
<path d="M26.3958 21.1948H50.669V28.9968C50.669 29.4755 51.0571 29.8637 51.5359 29.8637H59.338V62.8059H26.3958V21.1948ZM52.4028 22.4206L58.1121 28.1299H52.4028V22.4206ZM29.8634 33.3313V35.0651H55.8704V33.3313H29.8634ZM29.8634 38.5327V40.2665H55.8704V38.5327H29.8634ZM29.8634 43.7341V45.4679H55.8704V43.7341H29.8634ZM29.8634 48.9355V50.6693H55.8704V48.9355H29.8634ZM29.8634 54.1369V55.8707H55.8704V54.1369H29.8634Z" fill="white"/>
<defs>
<linearGradient id="paint0_linear_75_270" x1="20.5002" y1="4.26475e-07" x2="50.5002" y2="80" gradientUnits="userSpaceOnUse">
<stop stop-color="#67DBD3"/>
<stop offset="1" stop-color="#4393DE"/>
</linearGradient>
</defs>
</svg>
