<svg width="52" height="51" viewBox="0 0 52 51" fill="none" xmlns="http://www.w3.org/2000/svg">
<g filter="url(#filter0_d_76_474)">
<rect x="8.70468" y="4" width="34.8" height="34.8" rx="17.4" fill="#011C48"/>
<path d="M26.2759 11.3047C24.2694 11.3047 22.3079 11.8997 20.6395 13.0145C18.9711 14.1293 17.6708 15.7137 16.9029 17.5676C16.135 19.4214 15.9341 21.4612 16.3256 23.4292C16.717 25.3972 17.6833 27.205 19.1021 28.6238C20.521 30.0426 22.3287 31.0089 24.2967 31.4004C26.2647 31.7918 28.3046 31.5909 30.1584 30.823C32.0122 30.0552 33.5967 28.7548 34.7114 27.0864C35.8262 25.418 36.4212 23.4565 36.4212 21.45C36.4213 20.1177 36.159 18.7984 35.6492 17.5674C35.1394 16.3365 34.3921 15.218 33.45 14.2759C32.5079 13.3338 31.3894 12.5865 30.1585 12.0767C28.9276 11.5669 27.6083 11.3046 26.2759 11.3047ZM29.5016 26.6773C29.4637 26.772 29.4059 26.8575 29.3322 26.928C29.2585 26.9985 29.1705 27.0525 29.0743 27.0863C28.978 27.12 28.8756 27.1328 28.774 27.1238C28.6724 27.1148 28.5739 27.0841 28.4851 27.0339L25.731 24.8939L23.9633 26.5247C23.9223 26.555 23.8743 26.5745 23.8238 26.5814C23.7733 26.5883 23.7218 26.5824 23.6742 26.5642L24.013 23.5323L24.0239 23.5409L24.0308 23.481C24.0308 23.481 28.9868 18.9689 29.1887 18.7767C29.3931 18.5849 29.3256 18.5433 29.3256 18.5433C29.3373 18.3094 28.9589 18.5433 28.9589 18.5433L22.3923 22.7679L19.6576 21.8365C19.6576 21.8365 19.2376 21.6859 19.1981 21.3546C19.1565 21.0259 19.6713 20.8474 19.6713 20.8474L30.5441 16.528C30.5441 16.528 31.4379 16.1298 31.4379 16.7892L29.5016 26.6773Z" fill="white"/>
</g>
<defs>
<filter id="filter0_d_76_474" x="0.704681" y="0" width="50.8" height="50.7998" filterUnits="userSpaceOnUse" color-interpolation-filters="sRGB">
<feFlood flood-opacity="0" result="BackgroundImageFix"/>
<feColorMatrix in="SourceAlpha" type="matrix" values="0 0 0 0 0 0 0 0 0 0 0 0 0 0 0 0 0 0 127 0" result="hardAlpha"/>
<feOffset dy="4"/>
<feGaussianBlur stdDeviation="4"/>
<feComposite in2="hardAlpha" operator="out"/>
<feColorMatrix type="matrix" values="0 0 0 0 0.0358333 0 0 0 0 0.139352 0 0 0 0 0.179167 0 0 0 0.16 0"/>
<feBlend mode="normal" in2="BackgroundImageFix" result="effect1_dropShadow_76_474"/>
<feBlend mode="normal" in="SourceGraphic" in2="effect1_dropShadow_76_474" result="shape"/>
</filter>
</defs>
</svg>
