<svg width="68" height="69" viewBox="0 0 68 69" fill="none" xmlns="http://www.w3.org/2000/svg">
<path fill-rule="evenodd" clip-rule="evenodd" d="M0 2.82715C8.34685 2.82715 23.2192 5.43576 35.9731 13.9961C48.6704 22.5185 59.3109 36.9605 59.3109 60.7981H59.311V64.7516L54.6542 60.0947C54.2637 59.7042 53.6305 59.7042 53.24 60.0947C52.8494 60.4853 52.8494 61.1184 53.24 61.509L59.6039 67.8729C59.9945 68.2635 60.6276 68.2635 61.0181 67.8729L67.3821 61.509C67.7726 61.1184 67.7726 60.4853 67.3821 60.0947C66.9916 59.7042 66.3584 59.7042 65.9679 60.0947L61.311 64.7516V60.374H61.3098C61.1837 36.0708 50.2196 21.1496 37.0877 12.3355C23.9362 3.50825 8.65315 0.827148 0 0.827148V2.82715Z" fill="white"/>
</svg>
