<svg width="52" height="51" viewBox="0 0 52 51" fill="none" xmlns="http://www.w3.org/2000/svg">
<g filter="url(#filter0_d_76_476)">
<rect x="8.5047" y="4" width="34.8" height="34.8" rx="17.4" fill="#011C48"/>
<path d="M25.9173 11.3047C20.4163 11.3047 15.9564 15.7297 15.9564 21.1887C15.9564 23.0561 16.4787 24.8026 17.3858 26.2925L15.588 31.5953L21.1029 29.8433C22.53 30.6262 24.1712 31.0728 25.9173 31.0728C31.419 31.0728 35.8787 26.6471 35.8787 21.1887C35.8787 15.7297 31.419 11.3047 25.9173 11.3047ZM30.8705 24.9424C30.6362 25.5234 29.5763 26.0536 29.1087 26.078C28.6416 26.1027 28.6282 26.44 26.0814 25.3336C23.5349 24.227 22.0028 21.5362 21.882 21.3629C21.7611 21.1903 20.8956 19.9568 20.9423 18.7154C20.9893 17.4738 21.6691 16.8881 21.9117 16.6445C22.154 16.4005 22.4319 16.3568 22.6016 16.354C22.8021 16.3508 22.932 16.348 23.0804 16.3535C23.2287 16.3591 23.4515 16.3225 23.6443 16.8354C23.8371 17.3482 24.2985 18.6087 24.3575 18.7371C24.4165 18.8657 24.453 19.0146 24.3621 19.1797C24.271 19.3451 24.2243 19.4485 24.0921 19.591C23.9592 19.7336 23.8125 19.91 23.6939 20.019C23.5617 20.1397 23.4235 20.2714 23.5626 20.5294C23.7015 20.7872 24.1809 21.6325 24.9113 22.3291C25.85 23.2246 26.6595 23.5216 26.9086 23.6569C27.1584 23.793 27.3074 23.7778 27.4623 23.6148C27.6165 23.4518 28.1253 22.9017 28.3045 22.6561C28.4837 22.4098 28.6515 22.458 28.8817 22.5506C29.1116 22.6435 30.3381 23.3004 30.5879 23.4361C30.8375 23.5714 31.0043 23.6412 31.0639 23.7486C31.1236 23.8564 31.1047 24.3614 30.8705 24.9424Z" fill="white"/>
</g>
<defs>
<filter id="filter0_d_76_476" x="0.5047" y="0" width="50.8" height="50.7998" filterUnits="userSpaceOnUse" color-interpolation-filters="sRGB">
<feFlood flood-opacity="0" result="BackgroundImageFix"/>
<feColorMatrix in="SourceAlpha" type="matrix" values="0 0 0 0 0 0 0 0 0 0 0 0 0 0 0 0 0 0 127 0" result="hardAlpha"/>
<feOffset dy="4"/>
<feGaussianBlur stdDeviation="4"/>
<feComposite in2="hardAlpha" operator="out"/>
<feColorMatrix type="matrix" values="0 0 0 0 0.0358333 0 0 0 0 0.139352 0 0 0 0 0.179167 0 0 0 0.16 0"/>
<feBlend mode="normal" in2="BackgroundImageFix" result="effect1_dropShadow_76_476"/>
<feBlend mode="normal" in="SourceGraphic" in2="effect1_dropShadow_76_476" result="shape"/>
</filter>
</defs>
</svg>
